<?xml version="1.0" standalone="no"?>
<!DOCTYPE svg PUBLIC "-//W3C//DTD SVG 20010904//EN"
 "http://www.w3.org/TR/2001/REC-SVG-20010904/DTD/svg10.dtd">
<svg version="1.0" xmlns="http://www.w3.org/2000/svg"
 width="512.000000pt" height="512.000000pt" viewBox="0 0 512.000000 512.000000"
 preserveAspectRatio="xMidYMid meet">

<g transform="translate(0.000000,512.000000) scale(0.100000,-0.100000)"
fill="#000000" stroke="none">
<path d="M1158 4412 l-518 -517 2 -1645 3 -1645 23 -42 c35 -66 79 -110 140
-140 l57 -28 1455 0 1455 0 57 28 c69 34 121 91 148 164 20 54 20 70 18 2091
l-3 2037 -23 42 c-35 66 -79 110 -140 140 l-57 28 -1050 3 -1049 2 -518 -518z
m2639 390 c24 -12 55 -41 70 -64 l28 -42 3 -1463 2 -1463 -1580 0 -1580 0 0
1025 0 1025 380 0 c363 0 382 1 436 21 68 26 129 83 164 154 l25 50 3 393 3
392 1002 -2 1002 -3 42 -23z m-2149 -395 l-3 -344 -30 -48 c-20 -32 -45 -56
-74 -72 -44 -23 -47 -23 -390 -23 l-346 0 415 415 c228 228 419 415 423 415 4
0 7 -154 5 -343z m2250 -3266 l-3 -529 -31 -39 c-16 -21 -50 -48 -74 -61 l-44
-22 -1426 0 c-1366 0 -1427 1 -1465 19 -46 21 -88 63 -107 106 -10 23 -14 148
-16 543 l-3 512 1586 0 1586 0 -3 -529z"/>
<path d="M2412 3483 c-18 -9 -41 -28 -51 -42 -10 -14 -71 -177 -136 -361 -65
-184 -121 -343 -124 -353 -6 -15 -28 -2 -141 83 -74 56 -136 105 -138 109 -1
5 55 51 125 104 70 52 141 109 156 125 30 31 45 91 33 136 -16 66 -98 115
-169 102 -52 -10 -505 -354 -530 -403 -23 -43 -18 -103 10 -142 26 -36 438
-348 492 -373 24 -11 54 -18 67 -15 18 3 25 -2 35 -25 26 -64 107 -100 174
-78 67 22 83 54 215 428 68 193 127 352 130 352 9 0 275 -199 277 -208 1 -4
-61 -54 -139 -112 -77 -57 -149 -118 -159 -135 -21 -34 -25 -105 -8 -138 32
-61 99 -95 161 -82 17 4 138 88 270 187 211 158 242 184 259 224 23 51 18 99
-14 140 -23 29 -436 343 -486 368 -18 10 -47 16 -64 14 -27 -3 -35 2 -52 32
-42 72 -122 99 -193 63z m96 -95 c7 -7 12 -22 12 -34 0 -31 -299 -875 -318
-896 -20 -23 -37 -23 -61 1 -12 12 -17 27 -14 40 21 81 314 885 325 892 19 12
42 11 56 -3z m-478 -112 c28 -35 8 -59 -165 -189 -174 -131 -201 -161 -174
-193 8 -9 86 -71 174 -137 88 -66 163 -125 167 -131 16 -23 8 -57 -17 -68 -29
-13 -16 -22 -295 190 -107 81 -196 155 -198 165 -2 10 2 25 10 34 26 33 449
343 467 343 10 0 24 -7 31 -14z m872 -155 c124 -93 228 -176 231 -185 4 -9 4
-23 1 -31 -3 -7 -109 -91 -234 -185 -179 -134 -234 -170 -250 -165 -24 8 -42
38 -34 59 3 8 84 73 179 145 95 71 176 139 180 151 4 12 1 28 -7 37 -7 9 -87
72 -178 140 -91 69 -168 133 -172 143 -8 22 17 60 41 60 10 0 119 -76 243
-169z"/>
<path d="M2425 1458 c-86 -30 -142 -114 -130 -195 12 -80 84 -136 229 -178 99
-28 142 -93 101 -152 -9 -13 -34 -27 -57 -34 -78 -21 -160 14 -176 74 -8 30
-11 32 -60 35 l-52 3 0 -31 c0 -58 52 -125 120 -154 160 -66 350 15 350 150 0
106 -60 164 -223 214 -104 33 -137 69 -116 130 31 87 189 77 219 -14 11 -35
12 -36 67 -36 l55 0 -7 33 c-23 105 -111 168 -234 166 -31 0 -69 -5 -86 -11z"/>
<path d="M2060 1223 c0 -263 -6 -294 -63 -321 -55 -26 -127 16 -127 74 0 22
-4 24 -55 24 -55 0 -55 0 -55 -30 0 -114 122 -191 255 -161 69 16 128 67 144
126 6 24 11 136 11 283 l0 242 -55 0 -55 0 0 -237z"/>
</g>
</svg>
